<svg width="144" height="47" viewBox="0 0 144 47" fill="none" xmlns="http://www.w3.org/2000/svg">
<g clip-path="url(#clip0_6_6)">
<path d="M51.7574 8.54144C54.8291 8.54144 57.0827 9.24711 58.518 10.6437C59.9534 12.0403 60.6854 14.2308 60.6998 17.2005L60.7428 28.1236C60.7572 30.0935 60.6854 31.6519 60.5275 32.8133C60.3697 33.9747 59.9965 34.842 59.408 35.4301C58.8195 36.0181 57.9439 36.3857 56.7669 36.5474C55.6042 36.7091 53.9966 36.7826 51.9871 36.7826H40.0448C39.241 36.7826 38.7243 36.6797 38.5233 36.4739C38.3224 36.2681 38.2075 35.7682 38.1932 34.9744L37.9348 1.80826C37.9205 1.01439 38.0209 0.529246 38.2219 0.338129C38.4372 0.147013 38.9396 0.0588051 39.7577 0.0588051H45.6284C46.4322 0.0588051 46.9346 0.147013 47.1355 0.338129C47.3365 0.529246 47.437 1.01439 47.4513 1.80826L47.4944 8.55615H51.7431L51.7574 8.54144ZM49.8771 29.3732C50.4799 29.3732 50.8675 29.2997 51.0254 29.1379C51.1833 28.9762 51.255 28.6087 51.255 28.0206L51.1689 17.2446C51.1689 16.6566 51.0828 16.289 50.9249 16.1273C50.767 15.9656 50.3795 15.8921 49.7623 15.8921H47.5805L47.6953 29.3585H49.8771V29.3732ZM73.1875 36.7826C70.1158 36.7826 67.8623 36.0769 66.4269 34.6803C64.9915 33.2837 64.2595 31.0932 64.2452 28.1236L64.1447 17.2005C64.1303 15.2305 64.1877 13.6722 64.3313 12.5108C64.4748 11.3494 64.848 10.482 65.4509 9.89396C66.0537 9.30591 66.9437 8.93838 68.1063 8.77666C69.269 8.61495 70.8909 8.54144 72.9435 8.54144H84.7853C85.5891 8.54144 86.1059 8.64435 86.3212 8.85017C86.5365 9.05599 86.6369 9.55583 86.6226 10.3497L86.7948 28.3735C86.7948 28.9321 86.8092 29.285 86.8953 29.432C86.9671 29.5937 87.0963 29.6672 87.2685 29.6672C87.8139 29.6672 88.2159 29.6966 88.4886 29.7407C88.7613 29.7995 88.9479 29.9612 89.0627 30.2258C89.1632 30.4611 89.1919 30.7992 89.1488 31.2108V34.9449C89.1488 35.7094 89.034 36.1946 88.8187 36.4151C88.6034 36.6356 88.1297 36.7532 87.3833 36.7532H73.1732L73.1875 36.7826ZM75.0535 15.9068C74.4506 15.9068 74.0631 15.9803 73.9052 16.142C73.7473 16.3037 73.6755 16.6713 73.6755 17.2593L73.7617 28.0353C73.7617 28.447 74.4219 29.3879 75.1683 29.3879H77.4506C77.4075 29.2114 77.3788 29.0203 77.3501 28.8145C77.3214 28.6087 77.307 28.3882 77.307 28.1383L77.1922 15.9068H75.0679H75.0535ZM89.0627 47C88.2158 47 88.3307 46.8824 88.1584 46.6766C87.9862 46.4708 88.0867 45.9709 88.0723 45.177L88.0005 41.34C87.9862 40.9578 88.0005 40.649 88.0293 40.4138C88.0723 40.1786 88.1441 39.9875 88.2589 39.8699C88.3737 39.7523 88.5603 39.6641 88.8187 39.6347C89.0771 39.6053 89.4072 39.5759 89.8091 39.5759H90.8713C91.4741 39.5759 91.8617 39.5023 92.0483 39.3406C92.2205 39.1789 92.3067 38.8114 92.3067 38.2233L92.0914 10.335C92.1057 9.54113 92.2062 9.04129 92.3928 8.83547C92.5794 8.62965 93.0818 8.52674 93.8856 8.52674H99.7562C100.56 8.52674 101.077 8.62965 101.292 8.83547C101.507 9.04129 101.608 9.54113 101.594 10.335L101.809 35.8711C101.823 37.8411 101.751 41.8545 101.579 42.9865C101.407 44.1332 101.034 45.0006 100.431 45.6034C99.828 46.2061 98.1486 46.5884 96.9716 46.7501C95.809 46.9118 94.2014 46.9853 92.1775 46.9853H89.0484L89.0627 47ZM93.6703 6.26275C92.9669 6.26275 92.522 6.17454 92.3354 5.98342C92.1631 5.79231 92.0627 5.33657 92.0339 4.6162V1.70535C91.9765 0.940882 92.0626 0.485142 92.2636 0.308727C92.4646 0.132312 92.9239 0.0441038 93.6272 0.0441038H99.9428C100.617 0.0441038 101.034 0.132312 101.206 0.308727C101.378 0.485142 101.479 0.955583 101.522 1.70535V4.6162C101.565 5.33657 101.479 5.79231 101.278 5.98342C101.077 6.17454 100.646 6.26275 99.9715 6.26275H93.6559H93.6703ZM126.483 10.3644C126.468 9.57053 126.354 9.07069 126.153 8.86487C125.952 8.65906 125.435 8.55615 124.588 8.55615H118.775C118.373 8.55615 118.043 8.57085 117.784 8.61495C117.641 8.62965 117.526 8.67376 117.426 8.71786L117.454 28.0353C117.454 28.6234 117.383 28.9909 117.225 29.1526C117.196 29.182 117.139 29.2114 117.081 29.2409V29.3879H116.076H113.895L113.852 8.93838C113.852 8.93838 113.823 8.89428 113.809 8.87957C113.608 8.67376 113.091 8.57085 112.244 8.57085H106.431C106.029 8.57085 105.699 8.58555 105.44 8.62965C105.182 8.65905 104.995 8.74726 104.881 8.89428C104.766 9.02659 104.694 9.2177 104.651 9.43822C104.608 9.65874 104.579 9.98217 104.579 10.3938L104.751 28.1677C104.766 31.1373 105.498 33.3278 106.933 34.7244C108.368 36.1211 110.622 36.8267 113.694 36.8267H124.818C125.22 36.8267 125.55 36.812 125.808 36.7679C126.067 36.7385 126.253 36.6503 126.368 36.5033C126.483 36.371 126.555 36.1799 126.598 35.9593C126.641 35.7388 126.669 35.4154 126.669 35.0038L126.483 10.3938V10.3644ZM142.128 8.54144C142.975 8.54144 143.478 8.64435 143.65 8.85017C143.822 9.05599 143.908 9.55583 143.923 10.3497L143.994 14.1867C144.009 14.569 143.994 14.8777 143.966 15.1129C143.923 15.3481 143.851 15.5393 143.736 15.6569C143.621 15.7745 143.435 15.8627 143.176 15.8921C142.918 15.9215 142.588 15.9509 142.186 15.9509H141.124C140.521 15.9509 140.133 16.0244 139.947 16.1861C139.774 16.3478 139.688 16.7154 139.688 17.3034L139.904 34.9302C139.889 35.7241 139.789 36.224 139.602 36.4298C139.416 36.6356 138.913 36.7385 138.109 36.7385H132.239C131.435 36.7385 130.918 36.6356 130.703 36.4298C130.488 36.224 130.387 35.7241 130.401 34.9302L130.186 19.6556C130.172 17.6856 130.244 13.6722 130.416 12.5402C130.588 11.3935 130.961 10.5261 131.564 9.92337C132.167 9.32061 133.042 8.93838 134.22 8.77666C135.382 8.61495 136.99 8.54144 139.014 8.54144H142.143H142.128ZM35.5808 35.0626L34.6478 29.035L34.6191 28.7704L29.3082 3.14607C29.3082 1.41132 27.9303 0 26.2365 0H9.2848C7.59106 0 6.2131 1.41132 6.2131 3.14607L0.902231 28.7851L0.873523 29.0497L0.0266542 34.5039C-0.174298 35.7535 0.787401 36.8708 2.02182 36.8414L6.24181 36.7385H7.59106C8.10779 36.7385 8.5384 36.3563 8.62453 35.8417L9.74412 28.9027C9.74412 27.2415 11.0647 25.889 12.6866 25.889H16.7057C16.7774 23.8161 16.7918 20.9052 16.7487 19.4939C16.7344 19.0529 16.4186 18.6706 16.0023 18.6265L12.1268 18.3325C12.1268 18.3325 13.9067 11.5699 14.1651 9.43822C14.2512 8.70316 14.6674 8.54144 15.2272 8.55615C16.5047 8.55615 19.0453 8.55615 20.3228 8.55615C20.8826 8.54144 21.2989 8.70316 21.385 9.43822C21.6433 11.5846 23.4232 18.3325 23.4232 18.3325L19.5477 18.6265C19.1171 18.6706 18.8157 19.0529 18.8013 19.4939C18.7439 20.9052 18.7726 23.8161 18.8444 25.889H22.8634C24.4854 25.889 25.8059 27.2415 25.8059 28.9027L26.9255 35.8417C27.0116 36.3563 27.4422 36.7385 27.959 36.7385H31.7053L34.1311 36.7973C35.0354 36.8267 35.7387 35.9887 35.5951 35.0773L35.5808 35.0626Z" fill="white"/>
</g>
<defs>
<clipPath id="clip0_6_6">
<rect width="144" height="47" fill="white"/>
</clipPath>
</defs>
</svg>
