<svg width="157" height="47" viewBox="0 0 157 47" fill="none" xmlns="http://www.w3.org/2000/svg">
<path d="M53.217 32.856H57.0704C62.1017 32.856 63.4394 29.1622 63.4394 24.9213C63.4394 19.8595 62.1017 18.0203 58.1344 18.0203H53.217V32.856ZM58.1344 12.5709C66.4035 12.5709 70.4772 15.7174 70.4772 24.9213C70.4772 32.5672 66.4035 37.9633 57.0704 37.9633C51.545 37.9633 46.4148 37.7581 46.4148 37.7581V0.228055C47.5244 0.121651 48.6493 0.0760498 49.6525 0.0760498C51.6514 0.0760498 53.217 0.228055 53.217 0.228055V12.7761C53.217 12.7837 55.7251 12.5709 58.1344 12.5709Z" fill="white"/>
<path d="M88.7254 33.0611V27.2621L84.1501 27.2165C80.8592 27.1709 80.5247 28.767 80.5247 30.3098C80.5247 31.9135 81.0188 33.2131 83.6485 33.2131C85.8753 33.2131 88.7254 33.0611 88.7254 33.0611ZM73.8213 30.1502C73.8213 25.2556 76.4434 22.6716 83.5953 22.6716H88.733V21.3567C88.733 18.5142 86.6658 17.9138 83.9221 17.9138C80.2587 17.9138 76.565 18.917 76.565 18.917C76.565 18.917 75.7214 16.1201 76.071 13.5208C76.071 13.5208 78.8527 12.51 83.9221 12.51C91.6895 12.51 95.6037 14.6761 95.6037 21.0679V37.7505C95.6037 37.7505 89.2422 37.9557 83.1012 37.9557C76.3978 37.9557 73.8365 35.2576 73.8365 30.3022V30.1502H73.8213Z" fill="white"/>
<path d="M136.295 30.6366C136.295 37.036 132.442 38.0696 125.298 38.0696C118.154 38.0696 114.293 36.9752 114.293 30.629V12.7304C115.463 12.624 116.634 12.5784 117.637 12.5784C119.651 12.5784 121.156 12.7304 121.156 12.7304V29.6714C121.156 31.921 122.668 32.6659 125.298 32.6659C127.92 32.6659 129.425 31.921 129.425 29.6714V12.7304C130.595 12.624 131.72 12.5784 132.723 12.5784C134.737 12.5784 136.303 12.7304 136.303 12.7304V30.5682V30.6366H136.295Z" fill="white"/>
<path d="M156.17 12.7228C156.17 12.7228 152.986 12.5708 148.973 12.5708C144.61 12.5708 141.828 12.9204 141.828 12.9204V37.7505C142.938 37.8493 144.124 37.9101 145.119 37.9101C147.126 37.9101 148.691 37.7505 148.691 37.7505V18.119H156.178C156.284 17.2146 156.345 16.3253 156.345 15.5273C156.345 14.0224 156.375 14.1593 156.185 12.8748L156.17 12.7228Z" fill="white"/>
<path d="M98.1877 44.2031C98.1877 45.7991 98.355 47 98.355 47C103.888 47 108.767 45.2443 108.767 37.8493V12.6924C108.767 12.6924 107.316 12.5404 105.309 12.5404C104.306 12.5404 103.136 12.5936 101.957 12.6924V38.4421C101.957 40.745 100.483 41.5886 98.355 41.5886C98.2485 42.493 98.1877 43.3215 98.1877 44.1119V44.2031Z" fill="white"/>
<path d="M101.973 6.30058C101.973 4.81853 102.132 3.66329 102.132 3.66329C103.166 3.57209 104.2 3.52649 105.195 3.52649C107.11 3.52649 108.615 3.66329 108.615 3.66329C108.615 3.66329 108.775 4.81853 108.775 6.30058C108.775 7.05301 108.722 7.88144 108.615 8.71747C108.615 8.71747 107.118 8.86187 105.195 8.86187C104.207 8.86187 103.174 8.80867 102.132 8.71747C102.026 7.88144 101.973 7.06061 101.973 6.30058Z" fill="white"/>
<path d="M11.6892 26.4869L9.07471 37.9025H0C6.31582 14.9725 12.3276 0.395213 12.3276 0.395213C15.3525 0.0988034 17.9822 0 20.7107 0C26.1601 0 29.793 0.395213 29.793 0.395213C29.793 0.395213 35.8504 14.9725 42.1586 37.9025H32.7343L30.6366 26.4869H22.3676V20.5207H28.8886C26.5553 12.0236 24.3056 6.61983 24.3056 6.61983C24.3056 6.61983 22.9604 6.47542 20.9387 6.47542C19.9279 6.47542 18.9626 6.51342 17.8302 6.61983C17.8302 6.61983 15.6109 12.0236 13.2625 20.5207H19.7227V26.4869H11.6892Z" fill="white"/>
</svg>
