<svg width="32" height="33" viewBox="0 0 32 33" fill="none" xmlns="http://www.w3.org/2000/svg">
<path d="M30.9857 30.4792L30.1732 25.2396L30.1482 25.0096L25.5232 2.73482C25.5232 1.22684 24.3232 0 22.8482 0H8.08571C6.61071 0 5.41071 1.22684 5.41071 2.73482L0.785712 25.0224L0.760712 25.2524L0.023212 29.9936C-0.151788 31.0799 0.685712 32.0511 1.76071 32.0256L5.43571 31.9361H6.61071C7.06071 31.9361 7.43571 31.6038 7.51071 31.1565L8.48571 25.1246C8.48571 23.6805 9.63571 22.5048 11.0482 22.5048H14.5482C14.6107 20.7029 14.6232 18.1725 14.5857 16.9457C14.5732 16.5623 14.2982 16.23 13.9357 16.1917L10.5607 15.9361C10.5607 15.9361 12.1107 10.0575 12.3357 8.20447C12.4107 7.56549 12.7732 7.42492 13.2607 7.4377C14.3732 7.4377 16.5857 7.4377 17.6982 7.4377C18.1857 7.42492 18.5482 7.56549 18.6232 8.20447C18.8482 10.0703 20.3982 15.9361 20.3982 15.9361L17.0232 16.1917C16.6482 16.23 16.3857 16.5623 16.3732 16.9457C16.3232 18.1725 16.3482 20.7029 16.4107 22.5048H19.9107C21.3232 22.5048 22.4732 23.6805 22.4732 25.1246L23.4482 31.1565C23.5232 31.6038 23.8982 31.9361 24.3482 31.9361H27.6107L29.7232 31.9872C30.5107 32.0128 31.1232 31.2843 30.9982 30.492L30.9857 30.4792Z" fill="white"/>
</svg>
