<?xml version="1.0" encoding="utf-8"?>
<!-- Generator: Adobe Illustrator 24.3.0, SVG Export Plug-In . SVG Version: 6.00 Build 0)  -->
<svg width="112" height="100" version="1.1" id="Layer_1" xmlns="http://www.w3.org/2000/svg" xmlns:xlink="http://www.w3.org/1999/xlink" x="0px" y="0px"
	 viewBox="0 0 111.31 100.08" style="enable-background:new 0 0 111.31 100.08;" xml:space="preserve">
<style type="text/css">
	.st0{fill:#FFFFFF;}
</style>
<path class="st0" d="M30.85,69.94l-6.91,30.13H0C16.67,39.53,32.55,1.04,32.55,1.04C40.54,0.26,47.49,0,54.68,0
	c14.38,0,23.98,1.04,23.98,1.04s15.99,38.5,32.66,99.04H86.43L80.9,69.94H59.06V54.19h17.22c-6.17-22.43-12.1-36.7-12.1-36.7
	s-3.55-0.38-8.88-0.38c-2.67,0-5.22,0.1-8.21,0.38c0,0-5.87,14.27-12.05,36.7h17.05v15.75H30.85z"/>
</svg>
