<?xml version="1.0" encoding="utf-8"?>
<!-- Generator: Adobe Illustrator 24.3.0, SVG Export Plug-In . SVG Version: 6.00 Build 0)  -->
<svg width="208" height="145" version="1.1" id="Layer_1" xmlns="http://www.w3.org/2000/svg" xmlns:xlink="http://www.w3.org/1999/xlink" x="0px" y="0px"
	 viewBox="0 0 208 145" style="enable-background:new 0 0 208 145;" xml:space="preserve">
<style type="text/css">
	.st0{clip-path:url(#SVGID_2_);}
	.st1{clip-path:url(#SVGID_4_);}
	.st2{fill:#010101;}
	.st3{fill:none;stroke:#000000;stroke-width:15;stroke-linecap:round;stroke-linejoin:round;stroke-miterlimit:10;}
</style>
<g>
	<defs>
		<rect id="SVGID_1_" y="0.41" width="208" height="144.19"/>
	</defs>
	<clipPath id="SVGID_2_">
		<use xlink:href="#SVGID_1_"  style="overflow:visible;"/>
	</clipPath>
	<g class="st0">
		<path d="M207.82,27.01c-0.1-12.59-6.57-21.66-17.94-24.87c-4.49-1.27-9.39-1.44-14.11-1.47c-26.63-0.17-53.27-0.41-79.89-0.1
			c-25.38,0.3-50.77-1.02-76.14,0.91c-9.01,0.69-19.86,12.07-19.73,22C0.44,56.26,0.43,89.06,0,121.85
			c-0.13,10.1,12.54,22.91,22.65,22.75c26.96-0.42,53.93-0.14,80.89-0.14c26.96,0,53.93,0.02,80.89-0.03c1.58,0,3.12-0.08,4.79-0.58
			c11.84-3.52,18.5-13.58,18.6-25.95C208.05,87.6,208.06,57.31,207.82,27.01 M179.91,128.62c-25.62-0.39-51.26-0.15-76.88-0.15
			c-25.79,0-51.59,0.01-77.38-0.01c-6.88,0-9.49-2.59-9.49-9.45c-0.03-31.12-0.04-62.25-0.03-93.37c0-6.11,2.72-9.01,8.91-9.01
			c51.93-0.05,103.86-0.17,155.78,0.12c7.52,0.04,9.94,1.59,10.36,10.04c1.51,29.89,0.31,59.78,0.82,89.65
			C192.14,125.45,187.18,128.73,179.91,128.62"/>
	</g>
	<g class="st0">
		<path d="M161.91,35.16c-18.26,13.48-36.5,27.01-54.62,40.69c-2.71,2.05-4.63,2.24-7.34,0.18c-16.3-12.43-32.59-24.87-49.13-36.97
			c-3.21-2.35-5.87-6.54-10.98-5.42c-3.52-0.77-6.21,0.48-7.28,3.99c-0.99,3.22-1.21,6.49,1.98,8.93
			c5.83,4.44,11.59,8.98,17.46,13.38c15.61,11.7,31.28,23.33,46.9,35.01c3.16,2.36,6.11,2.35,9.31-0.05
			c11.49-8.62,23.09-17.1,34.58-25.71c9.71-7.27,19.45-14.5,28.95-22.03c3.85-3.05,4.46-8.25,2.08-11.22
			C171.33,32.81,165.8,32.28,161.91,35.16"/>
	</g>
</g>
</svg>
