<?xml version="1.0" encoding="utf-8"?>
<!-- Generator: Adobe Illustrator 24.3.0, SVG Export Plug-In . SVG Version: 6.00 Build 0)  -->
<svg width="22" height="16" version="1.1" id="Layer_1" xmlns="http://www.w3.org/2000/svg" xmlns:xlink="http://www.w3.org/1999/xlink" x="0px" y="0px"
	 viewBox="0 0 22 16" style="enable-background:new 0 0 22 16;" xml:space="preserve">
<style type="text/css">
	.st0{fill:#FFFFFF;}
</style>
<g>
	<g>
		<path class="st0" d="M21,2H1C0.45,2,0,1.55,0,1s0.45-1,1-1h20c0.55,0,1,0.45,1,1S21.55,2,21,2z"/>
	</g>
	<g>
		<path class="st0" d="M21,9H9C8.45,9,8,8.55,8,8s0.45-1,1-1h12c0.55,0,1,0.45,1,1S21.55,9,21,9z"/>
	</g>
	<g>
		<path class="st0" d="M21,16H1c-0.55,0-1-0.45-1-1s0.45-1,1-1h20c0.55,0,1,0.45,1,1S21.55,16,21,16z"/>
	</g>
</g>
</svg>
