<?xml version="1.0" encoding="utf-8"?>
<!-- Generator: Adobe Illustrator 24.3.0, SVG Export Plug-In . SVG Version: 6.00 Build 0)  -->
<svg width="22" height="32" version="1.1" id="Layer_1" xmlns="http://www.w3.org/2000/svg" xmlns:xlink="http://www.w3.org/1999/xlink" x="0px" y="0px"
	 viewBox="0 0 22 32" style="enable-background:new 0 0 22 32;" xml:space="preserve">
<style type="text/css">
	.st0{fill:#FFFFFF;}
</style>
<g>
	<path class="st0" d="M13,32H9c-4.96,0-9-4.04-9-9V9c0-4.96,4.04-9,9-9h4c4.96,0,9,4.04,9,9v14C22,27.96,17.96,32,13,32z M9,2
		C5.14,2,2,5.14,2,9v14c0,3.86,3.14,7,7,7h4c3.86,0,7-3.14,7-7V9c0-3.86-3.14-7-7-7H9z"/>
</g>
<g>
	<path class="st0" d="M11,13.38c-1.65,0-3-1.35-3-3v-2c0-1.65,1.35-3,3-3s3,1.35,3,3v2C14,12.03,12.65,13.38,11,13.38z M11,7.38
		c-0.55,0-1,0.45-1,1v2c0,0.55,0.45,1,1,1s1-0.45,1-1v-2C12,7.83,11.55,7.38,11,7.38z"/>
</g>
<g>
	<path class="st0" d="M11,18.12c-0.55,0-1-0.45-1-1V16c0-0.55,0.45-1,1-1s1,0.45,1,1v1.12C12,17.67,11.55,18.12,11,18.12z"/>
</g>
<g>
	<path class="st0" d="M11,25.9c-0.55,0-1-0.45-1-1v-5c0-0.55,0.45-1,1-1s1,0.45,1,1v5C12,25.45,11.55,25.9,11,25.9z"/>
</g>
<g>
	<path class="st0" d="M11,27.86c-0.26,0-0.51-0.1-0.71-0.29l-3-3c-0.39-0.39-0.39-1.02,0-1.41s1.02-0.39,1.41,0L11,25.45l2.29-2.29
		c0.39-0.39,1.02-0.39,1.41,0s0.39,1.02,0,1.41l-3,3C11.51,27.76,11.26,27.86,11,27.86z"/>
</g>
</svg>
