<?xml version="1.0" encoding="utf-8"?>
<!-- Generator: Adobe Illustrator 24.3.0, SVG Export Plug-In . SVG Version: 6.00 Build 0)  -->
<svg version="1.1" id="Layer_1" xmlns="http://www.w3.org/2000/svg" xmlns:xlink="http://www.w3.org/1999/xlink" x="0px" y="0px"
	 viewBox="0 0 512 386.08" style="enable-background:new 0 0 512 386.08;" xml:space="preserve">
<style type="text/css">
	.st0{clip-path:url(#SVGID_2_);fill:#FFFFFF;}
	.st1{clip-path:url(#SVGID_4_);fill:#FFFFFF;}
	.st2{clip-path:url(#SVGID_6_);fill:#FFFFFF;}
	.st3{clip-path:url(#SVGID_8_);fill:#FFFFFF;}
	.st4{clip-path:url(#SVGID_10_);fill:#FFFFFF;}
</style>
<g>
	<g>
		<defs>
			<rect id="SVGID_1_" y="0" width="512" height="386.08"/>
		</defs>
		<clipPath id="SVGID_2_">
			<use xlink:href="#SVGID_1_"  style="overflow:visible;"/>
		</clipPath>
		<path class="st0" d="M74.86,127.91c-13.48-0.04-26.96,0-40.44-0.02c-1.38,0-2.75-0.19-5.25-0.38c6.98-6.85,13.25-12.8,19.27-19
			c3.62-3.73,3.55-8.76,0.31-12.1c-3.27-3.38-8.4-3.66-12.07-0.06C24.36,108.43,12.21,120.7,0,132.9v7
			c4.79,4.8,9.57,9.6,14.36,14.39c7.41,7.42,14.73,14.92,22.28,22.19c3.68,3.54,8.84,3.32,12.09-0.01c3.13-3.2,3.21-7.98,0.08-11.74
			c-1.27-1.53-2.75-2.89-4.16-4.3c-4.85-4.86-9.7-9.72-15.48-15.5c16.21,0,30.97,0.02,45.73-0.01c6.58-0.01,10.15-2.94,10.28-8.26
			C85.3,131.1,81.63,127.93,74.86,127.91"/>
	</g>
	<g>
		<defs>
			<rect id="SVGID_3_" y="0" width="512" height="386.08"/>
		</defs>
		<clipPath id="SVGID_4_">
			<use xlink:href="#SVGID_3_"  style="overflow:visible;"/>
		</clipPath>
		<path class="st1" d="M482.09,102.97c-2.12-2.12-4.17-4.31-6.39-6.32c-4.09-3.7-9.09-3.74-12.47-0.24
			c-3.34,3.47-3.12,8.44,0.67,12.48c2.28,2.43,4.7,4.72,7.05,7.07c3.68,3.68,7.35,7.37,11.9,11.93c-16.18,0-30.95-0.02-45.71,0.01
			c-6.78,0.02-10.45,3.18-10.32,8.75c0.12,5.33,3.68,8.25,10.28,8.26c13.48,0.04,26.97,0,40.45,0.02c1.38,0,2.76,0.19,5.42,0.39
			c-7.08,6.91-13.38,12.84-19.41,19.03c-3.64,3.74-3.57,8.74-0.31,12.09c3.24,3.34,8.44,3.63,12.09,0.04
			c12.32-12.1,24.46-24.39,36.66-36.6v-7C502.03,122.92,492.06,112.95,482.09,102.97"/>
	</g>
	<g>
		<defs>
			<rect id="SVGID_5_" y="0" width="512" height="386.08"/>
		</defs>
		<clipPath id="SVGID_6_">
			<use xlink:href="#SVGID_5_"  style="overflow:visible;"/>
		</clipPath>
		<path class="st2" d="M241.43,0.66C158.06,8.17,93.91,78.22,93.12,161.82c1.33,10.89,1.6,22.04,4.26,32.59
			c3.35,13.3,8.46,26.19,13.23,39.1c1.68,4.56,6.21,6.31,10.19,4.91c4.07-1.43,6.34-4.42,5.99-8.74c-0.17-2.07-1.21-4.13-2.12-6.07
			c-12.57-27.06-16.47-55.31-11.81-84.76c9.61-60.69,58.07-109.68,118.51-119.8c62.31-10.43,124.18,19.81,152.87,75.54
			c22.44,43.59,22.52,87.85,1.59,132.16c-2.91,6.16-1.83,10.86,2.97,13.27c4.83,2.43,9.29,0.36,12.3-5.75
			c14.54-29.49,19.84-60.62,15.64-93.19C405.64,54.88,328.07-7.14,241.43,0.66"/>
	</g>
	<g>
		<defs>
			<rect id="SVGID_7_" y="0" width="512" height="386.08"/>
		</defs>
		<clipPath id="SVGID_8_">
			<use xlink:href="#SVGID_7_"  style="overflow:visible;"/>
		</clipPath>
		<path class="st3" d="M322.43,138.27c-8.02-34.62-39.32-56.25-75.42-52.41c-32.88,3.49-58.83,32.88-59.14,67.29
			c-0.2,21.82-0.05,43.64-0.04,65.45c0,9.13,2.43,11.6,11.48,11.62c18.82,0.03,37.64,0.01,56.46,0.01c18.99,0,37.97,0.01,56.96-0.01
			c8.83-0.01,11.43-2.55,11.44-11.16c0.02-21.49,0.11-42.97-0.07-64.45C324.05,149.15,323.66,143.56,322.43,138.27 M307.1,210.66
			c0,0.63-0.16,1.27-0.3,2.27H205.21c-0.12-1.32-0.32-2.43-0.32-3.55c-0.01-18.83-0.19-37.65,0.06-56.48
			c0.32-24.52,17.39-44.88,41.25-49.68c22.98-4.62,46.6,7.37,56.23,29.21c2.5,5.66,4.23,12.11,4.4,18.25
			C307.4,170.66,307.08,190.67,307.1,210.66"/>
	</g>
	<g>
		<defs>
			<rect id="SVGID_9_" y="0" width="512" height="386.08"/>
		</defs>
		<clipPath id="SVGID_10_">
			<use xlink:href="#SVGID_9_"  style="overflow:visible;"/>
		</clipPath>
		<path class="st4" d="M358.31,376.41c0.03-73.66,0.04-147.32-0.03-220.98c-0.01-5.81-0.39-11.67-1.19-17.42
			c-8.07-57.56-65.81-97.41-122.48-84.65c-48.16,10.84-80.62,51.27-80.89,101.22c-0.21,40.49-0.04,80.98-0.04,121.47
			c0,33.46,0,66.91,0,100.37h0.04c-0.03,0.29-0.04,0.59-0.04,0.88c0,4.85,3.82,8.78,8.54,8.78c4.72,0,8.54-3.93,8.54-8.78
			c0-0.3-0.01-0.59-0.04-0.88h0.04c-0.02-73.92-0.08-147.83,0.03-221.75c0.07-43.19,28.58-77.26,70.94-85.29
			c44.92-8.52,91.1,23.95,98.2,69.18c0.87,5.57,1.26,11.26,1.26,16.9c0.07,73.65,0.06,147.3,0.06,220.95h0.05
			c-0.03,0.29-0.04,0.59-0.04,0.88c0,4.85,3.82,8.78,8.54,8.78s8.54-3.93,8.54-8.78c0-0.3-0.02-0.59-0.04-0.88H358.31z"/>
	</g>
</g>
</svg>
