<svg width="36" height="36" viewBox="0 0 36 36" fill="none" xmlns="http://www.w3.org/2000/svg">
<path d="M30.5764 5.65625C27.3733 2.375 22.9983 0.5 18.3108 0.5C8.77951 0.5 0.967014 8.3125 0.967014 17.8438C0.967014 20.9688 1.82639 23.9375 3.31076 26.5156L0.888889 35.5L10.0295 33.1562C12.6076 34.4844 15.4201 35.2656 18.3108 35.2656C27.9201 35.2656 35.8889 27.4531 35.8889 17.9219C35.8889 13.2344 33.8576 8.9375 30.5764 5.65625ZM18.3108 32.2969C15.7326 32.2969 13.2326 31.5938 10.967 30.2656L10.4983 29.9531L5.02951 31.4375L6.51389 26.125L6.12326 25.5781C4.71701 23.2344 3.93576 20.5781 3.93576 17.8438C3.93576 9.95312 10.4201 3.46875 18.3889 3.46875C22.217 3.46875 25.8108 4.95312 28.5451 7.6875C31.2795 10.4219 32.9201 14.0156 32.9201 17.9219C32.9201 25.8125 26.2795 32.2969 18.3108 32.2969ZM26.2795 21.5156C25.8108 21.2812 23.7014 20.2656 23.3108 20.1094C22.9201 19.9531 22.6076 19.875 22.2951 20.3438C22.0608 20.7344 21.2014 21.75 20.967 22.0625C20.6545 22.2969 20.4201 22.375 20.0295 22.1406C17.4514 20.8906 15.8108 19.875 14.092 16.9844C13.6233 16.2031 14.5608 16.2812 15.342 14.6406C15.4983 14.3281 15.4201 14.0938 15.342 13.8594C15.2639 13.625 14.3264 11.5156 14.0139 10.6562C13.6233 9.79688 13.3108 9.875 12.9983 9.875C12.7639 9.875 12.4514 9.875 12.217 9.875C11.9045 9.875 11.4358 9.95312 11.0451 10.4219C10.6545 10.8906 9.56076 11.9062 9.56076 14.0156C9.56076 16.2031 11.0451 18.2344 11.2795 18.5469C11.5139 18.7812 14.3264 23.1562 18.7014 25.0312C21.4358 26.2812 22.5295 26.3594 23.9358 26.125C24.717 26.0469 26.4358 25.1094 26.8264 24.0938C27.217 23.0781 27.217 22.2188 27.0608 22.0625C26.9826 21.8281 26.6701 21.75 26.2795 21.5156Z" fill="white"/>
</svg>
